<?xml version="1.0" encoding="UTF-8"?>
<svg version="1.1" xmlns="http://www.w3.org/2000/svg" width="200" height="200">
<path d="M0 0 C2.13906948 0.00535986 4.27792906 0.00002736 6.41699219 -0.00634766 C23.70476632 -0.0158917 23.70476632 -0.0158917 30.14355469 2.13037109 C30.86671875 2.36755859 31.58988281 2.60474609 32.33496094 2.84912109 C33.11742187 3.10693359 33.89988281 3.36474609 34.70605469 3.63037109 C35.49109375 3.88818359 36.27613281 4.14599609 37.08496094 4.41162109 C39.82495195 5.3682783 41.94410784 6.61372394 44.45605469 8.13037109 C47.35444093 9.8090198 49.8293038 10.5622138 53.14355469 11.13037109 C54.13355469 12.12037109 54.13355469 12.12037109 55.14355469 13.13037109 C57.10643803 14.6638737 58.91385625 16.01552187 61.14355469 17.13037109 C62.31917969 18.36787109 62.31917969 18.36787109 63.51855469 19.63037109 C66.14372343 22.1305318 66.87452383 22.34129468 70.14355469 23.13037109 C70.55347656 23.98308594 70.55347656 23.98308594 70.97167969 24.85302734 C72.46186434 27.74895285 74.43762295 29.6694899 76.70605469 32.00537109 C86.51517727 42.51450752 93.14211777 54.71530197 98.14355469 68.13037109 C98.79710937 69.83580078 98.79710937 69.83580078 99.46386719 71.57568359 C106.6581037 94.46643612 103.73959966 122.35188219 93.26855469 143.63037109 C91.94299816 146.15977142 90.55794935 148.64976197 89.14355469 151.13037109 C88.58796875 152.12552734 88.03238281 153.12068359 87.45996094 154.14599609 C83.88827016 160.14164008 79.62180885 165.16716512 74.78686523 170.16064453 C72.53691343 172.49662974 71.18529166 174.00516017 70.14355469 177.13037109 C69.18449219 177.34693359 69.18449219 177.34693359 68.20605469 177.56787109 C67.52542969 177.75349609 66.84480469 177.93912109 66.14355469 178.13037109 C65.44417937 179.44684228 64.77626335 180.78059261 64.14355469 182.13037109 C63.15355469 182.46037109 62.16355469 182.79037109 61.14355469 183.13037109 C60.15355469 183.79037109 59.16355469 184.45037109 58.14355469 185.13037109 C57.15355469 185.46037109 56.16355469 185.79037109 55.14355469 186.13037109 C53.09085006 187.97225721 53.09085006 187.97225721 52.14355469 190.13037109 C50.08315352 190.81717148 48.00421362 191.44999277 45.91308594 192.03662109 C40.92969862 193.48257804 36.05413959 195.20404607 31.15527344 196.91162109 C21.54691067 199.95729534 12.38486198 200.46801819 2.33105469 200.44287109 C0.41583008 200.46704102 0.41583008 200.46704102 -1.53808594 200.49169922 C-9.03324212 200.49551355 -15.72719367 199.76949525 -22.96069336 197.77563477 C-26.01221995 197.09565966 -28.7403396 197.02072444 -31.85644531 197.13037109 C-31.85644531 196.47037109 -31.85644531 195.81037109 -31.85644531 195.13037109 C-36.24898304 193.5676492 -36.24898304 193.5676492 -40.85644531 193.13037109 C-43.41501282 192.04491821 -44.87032919 191.11648722 -46.85644531 189.13037109 C-47.59894531 188.84162109 -48.34144531 188.55287109 -49.10644531 188.25537109 C-52.89501534 186.70550154 -56.97046004 184.90234163 -58.85644531 181.13037109 C-59.51644531 180.80037109 -60.17644531 180.47037109 -60.85644531 180.13037109 C-61.47519531 179.30537109 -62.09394531 178.48037109 -62.73144531 177.63037109 C-65.03415718 174.9212983 -65.62267127 174.88491837 -68.85644531 174.13037109 C-69.54029619 172.80576919 -70.2041018 171.47077035 -70.85644531 170.13037109 C-71.81830105 168.89145908 -72.81957529 167.68221857 -73.85644531 166.50537109 C-74.37207031 165.91498047 -74.88769531 165.32458984 -75.41894531 164.71630859 C-76.53095743 163.48946914 -77.68561099 162.30120541 -78.85644531 161.13037109 C-94.90801557 135.72917487 -102.70164278 107.86520404 -96.78051758 77.76586914 C-92.18992463 58.79771414 -82.30704151 42.21990852 -68.79003906 28.30224609 C-66.65924659 26.19650317 -66.65924659 26.19650317 -65.85644531 23.13037109 C-65.21707031 22.98599609 -64.57769531 22.84162109 -63.91894531 22.69287109 C-63.23832031 22.50724609 -62.55769531 22.32162109 -61.85644531 22.13037109 C-61.15706999 20.81389991 -60.48915398 19.48014958 -59.85644531 18.13037109 C-58.86644531 17.80037109 -57.87644531 17.47037109 -56.85644531 17.13037109 C-55.86644531 16.47037109 -54.87644531 15.81037109 -53.85644531 15.13037109 C-52.86644531 14.80037109 -51.87644531 14.47037109 -50.85644531 14.13037109 C-48.80374068 12.28848498 -48.80374068 12.28848498 -47.85644531 10.13037109 C-45.67368258 9.40278352 -43.45899058 8.76896039 -41.23144531 8.19287109 C-40.11769531 7.84224609 -39.00394531 7.49162109 -37.85644531 7.13037109 C-37.52644531 6.47037109 -37.19644531 5.81037109 -36.85644531 5.13037109 C-34.52582351 4.77857912 -32.19209464 4.44706931 -29.85644531 4.13037109 C-27.6557711 3.19753813 -27.6557711 3.19753813 -25.85644531 2.13037109 C-17.61079372 -0.61817944 -8.59379581 -0.02561195 0 0 Z " fill="#AC0000" transform="translate(97.8564453125,-0.13037109375)"/>
<path d="M0 0 C1.9593723 1.57645963 3.3963792 3.05274617 5 5 C4.33613281 4.83628906 3.67226562 4.67257813 2.98828125 4.50390625 C-0.62883337 3.89396143 -4.15860708 3.89204487 -7.8125 3.9375 C-8.50537109 3.94201172 -9.19824219 3.94652344 -9.91210938 3.95117188 C-11.60811068 3.96286844 -13.30406703 3.98080076 -15 4 C-14.59007813 4.44730469 -14.18015625 4.89460938 -13.7578125 5.35546875 C-9.93906266 9.64014261 -7 13.01766755 -7 19 C-5.96552734 19.14695312 -5.96552734 19.14695312 -4.91015625 19.296875 C-1.40836413 20.14294558 1.38441016 21.55600078 4.5625 23.25 C5.67753906 23.83265625 6.79257813 24.4153125 7.94140625 25.015625 C11.10008554 27.06493417 12.74301152 29.02760617 15 32 C15.83273438 32.65613281 16.66546875 33.31226563 17.5234375 33.98828125 C26.11941017 40.97081425 29.86943719 52.34661968 31 63 C30.96356363 65.34321797 30.84749261 67.67583441 30.73144531 70.01635742 C30.20258236 77.53578274 30.20258236 77.53578274 32.4140625 84.51171875 C34.21321327 86.20986639 34.21321327 86.20986639 36.17578125 87.62109375 C40.14923873 90.62458516 41.69617387 94.85755597 42.37890625 99.671875 C42.69622566 107.0828186 41.27717103 112.38993349 36.26953125 117.90625 C31.84444855 122.07519019 26.90007184 125.33524944 21 127 C20.34 126.67 19.68 126.34 19 126 C19.7425 125.29875 20.485 124.5975 21.25 123.875 C26.24151545 118.75164844 26.24151545 118.75164844 28.25 112.125 C28.1675 111.42375 28.085 110.7225 28 110 C26.515 110.495 26.515 110.495 25 111 C21.68282717 111.12285825 18.7726453 111.2195156 15.56640625 110.30859375 C12.14915997 109.89769199 11.0257216 110.90603866 8.3125 112.9375 C4.16173121 116 4.16173121 116 2 116 C2 116.66 2 117.32 2 118 C-9.54171113 124.41206174 -22.93846584 126.03309548 -35.84765625 123.13671875 C-39.67393083 121.97146348 -43.41757768 120.79121116 -47 119 C-47 118.34 -47 117.68 -47 117 C-48.6396875 116.62875 -48.6396875 116.62875 -50.3125 116.25 C-54.05908409 114.97997149 -55.10595266 114.34243648 -57 111 C-58.8871875 111.2165625 -58.8871875 111.2165625 -60.8125 111.4375 C-61.52019531 111.51871094 -62.22789063 111.59992188 -62.95703125 111.68359375 C-65.19396393 111.97170735 -65.19396393 111.97170735 -68 113 C-74.84243321 113.74136488 -80.36693532 113.11879998 -86 109 C-91.2124385 104.22488628 -94.7390915 98.94744903 -95.2109375 91.80859375 C-95.31646972 82.36346012 -95.31646972 82.36346012 -94 78 C-93.34 78 -92.68 78 -92 78 C-91.90203125 78.58007812 -91.8040625 79.16015625 -91.703125 79.7578125 C-90.70096881 84.99321469 -89.41379469 88.75861871 -86 93 C-85.01 93.66 -84.02 94.32 -83 95 C-82.938125 94.13375 -82.87625 93.2675 -82.8125 92.375 C-81.75705304 87.9908357 -80.13182806 86.20821412 -77 83 C-76.34 83 -75.68 83 -75 83 C-75.32484375 82.16210938 -75.6496875 81.32421875 -75.984375 80.4609375 C-78.37988027 72.29779264 -77.97254121 62.01496714 -75 54 C-74.68160156 53.07832031 -74.36320312 52.15664062 -74.03515625 51.20703125 C-68.97824642 37.77301826 -59.16788769 26.53969186 -46 20.4375 C-43.33666602 19.33593723 -41.94321119 19 -39 19 C-38.98582031 18.443125 -38.97164062 17.88625 -38.95703125 17.3125 C-38.45548189 9.28771027 -35.46232951 4.02772635 -29.5625 -1.375 C-19.47613856 -9.37452804 -10.04264346 -6.15237985 0 0 Z " fill="#A70000" transform="translate(123,30)"/>
<path d="M0 0 C2.13906948 0.00535986 4.27792906 0.00002736 6.41699219 -0.00634766 C23.70476632 -0.0158917 23.70476632 -0.0158917 30.14355469 2.13037109 C30.86671875 2.36755859 31.58988281 2.60474609 32.33496094 2.84912109 C33.11742187 3.10693359 33.89988281 3.36474609 34.70605469 3.63037109 C35.49109375 3.88818359 36.27613281 4.14599609 37.08496094 4.41162109 C39.82495195 5.3682783 41.94410784 6.61372394 44.45605469 8.13037109 C47.35444093 9.8090198 49.8293038 10.5622138 53.14355469 11.13037109 C54.13355469 12.12037109 54.13355469 12.12037109 55.14355469 13.13037109 C57.10643803 14.6638737 58.91385625 16.01552187 61.14355469 17.13037109 C62.31917969 18.36787109 62.31917969 18.36787109 63.51855469 19.63037109 C66.14372343 22.1305318 66.87452383 22.34129468 70.14355469 23.13037109 C70.55347656 23.98308594 70.55347656 23.98308594 70.97167969 24.85302734 C72.46186434 27.74895285 74.43762295 29.6694899 76.70605469 32.00537109 C86.51517727 42.51450752 93.14211777 54.71530197 98.14355469 68.13037109 C98.79710937 69.83580078 98.79710937 69.83580078 99.46386719 71.57568359 C106.6581037 94.46643612 103.73959966 122.35188219 93.26855469 143.63037109 C91.94299816 146.15977142 90.55794935 148.64976197 89.14355469 151.13037109 C88.58796875 152.12552734 88.03238281 153.12068359 87.45996094 154.14599609 C83.88827016 160.14164008 79.62180885 165.16716512 74.78686523 170.16064453 C72.53691343 172.49662974 71.18529166 174.00516017 70.14355469 177.13037109 C69.18449219 177.34693359 69.18449219 177.34693359 68.20605469 177.56787109 C67.52542969 177.75349609 66.84480469 177.93912109 66.14355469 178.13037109 C65.44417937 179.44684228 64.77626335 180.78059261 64.14355469 182.13037109 C63.15355469 182.46037109 62.16355469 182.79037109 61.14355469 183.13037109 C60.15355469 183.79037109 59.16355469 184.45037109 58.14355469 185.13037109 C57.15355469 185.46037109 56.16355469 185.79037109 55.14355469 186.13037109 C53.09085006 187.97225721 53.09085006 187.97225721 52.14355469 190.13037109 C50.08315352 190.81717148 48.00421362 191.44999277 45.91308594 192.03662109 C40.92969862 193.48257804 36.05413959 195.20404607 31.15527344 196.91162109 C21.54691067 199.95729534 12.38486198 200.46801819 2.33105469 200.44287109 C0.41583008 200.46704102 0.41583008 200.46704102 -1.53808594 200.49169922 C-9.03324212 200.49551355 -15.72719367 199.76949525 -22.96069336 197.77563477 C-26.01221995 197.09565966 -28.7403396 197.02072444 -31.85644531 197.13037109 C-31.85644531 196.47037109 -31.85644531 195.81037109 -31.85644531 195.13037109 C-36.24898304 193.5676492 -36.24898304 193.5676492 -40.85644531 193.13037109 C-43.41501282 192.04491821 -44.87032919 191.11648722 -46.85644531 189.13037109 C-47.59894531 188.84162109 -48.34144531 188.55287109 -49.10644531 188.25537109 C-52.89501534 186.70550154 -56.97046004 184.90234163 -58.85644531 181.13037109 C-59.51644531 180.80037109 -60.17644531 180.47037109 -60.85644531 180.13037109 C-61.47519531 179.30537109 -62.09394531 178.48037109 -62.73144531 177.63037109 C-65.03415718 174.9212983 -65.62267127 174.88491837 -68.85644531 174.13037109 C-69.54029619 172.80576919 -70.2041018 171.47077035 -70.85644531 170.13037109 C-71.81830105 168.89145908 -72.81957529 167.68221857 -73.85644531 166.50537109 C-74.37207031 165.91498047 -74.88769531 165.32458984 -75.41894531 164.71630859 C-76.53095743 163.48946914 -77.68561099 162.30120541 -78.85644531 161.13037109 C-94.90801557 135.72917487 -102.70164278 107.86520404 -96.78051758 77.76586914 C-92.18992463 58.79771414 -82.30704151 42.21990852 -68.79003906 28.30224609 C-66.65924659 26.19650317 -66.65924659 26.19650317 -65.85644531 23.13037109 C-65.21707031 22.98599609 -64.57769531 22.84162109 -63.91894531 22.69287109 C-63.23832031 22.50724609 -62.55769531 22.32162109 -61.85644531 22.13037109 C-61.15706999 20.81389991 -60.48915398 19.48014958 -59.85644531 18.13037109 C-58.86644531 17.80037109 -57.87644531 17.47037109 -56.85644531 17.13037109 C-55.86644531 16.47037109 -54.87644531 15.81037109 -53.85644531 15.13037109 C-52.86644531 14.80037109 -51.87644531 14.47037109 -50.85644531 14.13037109 C-48.80374068 12.28848498 -48.80374068 12.28848498 -47.85644531 10.13037109 C-45.67368258 9.40278352 -43.45899058 8.76896039 -41.23144531 8.19287109 C-40.11769531 7.84224609 -39.00394531 7.49162109 -37.85644531 7.13037109 C-37.52644531 6.47037109 -37.19644531 5.81037109 -36.85644531 5.13037109 C-34.52582351 4.77857912 -32.19209464 4.44706931 -29.85644531 4.13037109 C-27.6557711 3.19753813 -27.6557711 3.19753813 -25.85644531 2.13037109 C-17.61079372 -0.61817944 -8.59379581 -0.02561195 0 0 Z M-58.85644531 29.13037109 C-59.55125 29.69369141 -60.24605469 30.25701172 -60.96191406 30.83740234 C-73.09607499 40.85923352 -81.90201976 55.26709445 -86.85644531 70.13037109 C-87.22769531 71.12037109 -87.59894531 72.11037109 -87.98144531 73.13037109 C-93.2848421 89.33519462 -93.15819231 109.90742241 -87.85644531 126.13037109 C-87.64713379 126.77506348 -87.43782227 127.41975586 -87.22216797 128.08398438 C-78.96244942 153.00343248 -62.09322298 172.40707858 -38.98144531 184.65380859 C-18.752124 194.35682608 6.59247587 197.1463857 28.14355469 190.13037109 C28.77229492 189.93169434 29.40103516 189.73301758 30.04882812 189.52832031 C53.26953983 182.05131835 73.12567898 166.74325202 84.5480957 145.00439453 C91.2105145 131.70790095 95.54070209 119.03791837 95.39355469 104.06787109 C95.38606201 103.05926025 95.37856934 102.05064941 95.37084961 101.01147461 C94.99000905 74.26965906 86.18786523 52.02317883 67.70605469 32.56396484 C59.03295788 24.36161178 48.92936691 18.13329454 38.08105469 13.25537109 C37.18169189 12.84424072 37.18169189 12.84424072 36.26416016 12.42480469 C25.25724544 7.72754916 13.94750747 6.54417373 2.08105469 6.56787109 C1.40679443 6.56835449 0.73253418 6.56883789 0.0378418 6.56933594 C-22.44742315 6.68081996 -41.91754767 14.29755309 -58.85644531 29.13037109 Z " fill="#030000" transform="translate(97.8564453125,-0.13037109375)"/>
<path d="M0 0 C4.26284472 3.08557802 7.43834095 7.12686689 8.75390625 12.26953125 C9.52682945 19.57089501 7.99660953 24.69781862 4.06640625 30.95703125 C-0.18503112 35.20846862 -4.7542439 37.47973484 -10.80859375 37.70703125 C-16.43362134 37.41658232 -20.60535485 35.64317312 -24.93359375 32.01953125 C-29.757537 26.28295009 -31.97222988 22.2919503 -31.62890625 14.76171875 C-30.78637706 9.27668177 -28.45371699 5.06837433 -24.30859375 1.39453125 C-16.69320478 -3.8896162 -8.21243567 -4.69519049 0 0 Z " fill="#020000" transform="translate(111.24609375,82.73046875)"/>
<path d="M0 0 C0.66 0 1.32 0 2 0 C2.09796875 0.58007812 2.1959375 1.16015625 2.296875 1.7578125 C3.29903119 6.99321469 4.58620531 10.75861871 8 15 C8.99 15.66 9.98 16.32 11 17 C11.061875 16.13375 11.12375 15.2675 11.1875 14.375 C12.31191225 9.70436452 14.73359899 6.39397886 18.8671875 3.8515625 C23.34856239 2.0622956 28.55441359 2.15904557 33.1015625 3.72265625 C37.06307225 5.80455605 39.06351408 8.04775681 41 12 C41.81462618 17.45285815 41.67819158 22.41755298 39.5 27.5 C34.60614012 32.39385988 28.23378727 35.10605658 21.3125 35.3125 C15.173429 35.22313943 10.81454183 33.57840113 6.27734375 29.421875 C-0.2326205 22.32009582 -1.3363809 16.43834542 -1.203125 6.98828125 C-1.03399912 4.50017937 -0.71694323 2.3763199 0 0 Z " fill="#040000" transform="translate(29,108)"/>
<path d="M0 0 C5.36124178 4.51262809 10.30716793 9.72771892 11.0234375 16.99609375 C11.22791404 24.62629729 10.2524939 29.75857472 5.0546875 35.484375 C0.6296048 39.65331519 -4.31477191 42.91337444 -10.21484375 44.578125 C-10.87484375 44.248125 -11.53484375 43.918125 -12.21484375 43.578125 C-11.47234375 42.876875 -10.72984375 42.175625 -9.96484375 41.453125 C-4.9733283 36.32977344 -4.9733283 36.32977344 -2.96484375 29.703125 C-3.04734375 29.001875 -3.12984375 28.300625 -3.21484375 27.578125 C-4.20484375 27.908125 -5.19484375 28.238125 -6.21484375 28.578125 C-12.32671246 29.16580468 -15.30738994 27.97559302 -20.21484375 24.578125 C-24.11777398 20.28490175 -24.74098213 15.86604412 -24.69140625 10.22265625 C-23.83019127 5.44361905 -20.88498391 2.56943843 -17.21484375 -0.421875 C-11.76873151 -3.38171861 -5.26604217 -3.38066905 0 0 Z " fill="#030000" transform="translate(154.21484375,112.421875)"/>
<path d="M0 0 C1.9593723 1.57645963 3.3963792 3.05274617 5 5 C4.33613281 4.83628906 3.67226562 4.67257813 2.98828125 4.50390625 C-0.62883337 3.89396143 -4.15860708 3.89204487 -7.8125 3.9375 C-8.50537109 3.94201172 -9.19824219 3.94652344 -9.91210938 3.95117188 C-11.60811068 3.96286844 -13.30406703 3.98080076 -15 4 C-14.36771484 4.72316406 -14.36771484 4.72316406 -13.72265625 5.4609375 C-13.17480469 6.09257813 -12.62695312 6.72421875 -12.0625 7.375 C-11.51722656 8.00148438 -10.97195312 8.62796875 -10.41015625 9.2734375 C-7.49381242 12.84414102 -7.66464216 15.98740635 -7.72265625 20.4609375 C-8.27115384 25.48239427 -10.99948728 28.07269553 -14.5625 31.375 C-19.46628287 33.6931519 -23.67996773 34.12871972 -29 33 C-33.15340845 30.59786717 -36.04112124 27.59813127 -38.5 23.5 C-39.96290389 16.18548053 -38.51452684 10.45885022 -35 4 C-25.39969784 -9.0029409 -12.70564491 -7.78380255 0 0 Z " fill="#030000" transform="translate(123,30)"/>
<path d="M0 0 C0.33 0.99 0.66 1.98 1 3 C1.68964844 3.09796875 2.37929687 3.1959375 3.08984375 3.296875 C6.59163587 4.14294558 9.38441016 5.55600078 12.5625 7.25 C13.67753906 7.83265625 14.79257813 8.4153125 15.94140625 9.015625 C19.10008554 11.06493417 20.74301152 13.02760617 23 16 C23.83273438 16.65613281 24.66546875 17.31226562 25.5234375 17.98828125 C33.13671391 24.17256729 36.67968839 33.87855524 38.6875 43.1875 C39.3068328 50.74336016 39.7642715 58.57885797 38 66 C36.35 65.67 34.7 65.34 33 65 C33.01571045 64.16976318 33.01571045 64.16976318 33.03173828 63.32275391 C33.74592991 48.9466037 33.74592991 48.9466037 31 35 C30.34 34.34 29.68 33.68 29 33 C28.608125 31.96875 28.21625 30.9375 27.8125 29.875 C24.68467713 22.39001094 18.86901486 17.51205362 12.11328125 13.32421875 C10 12 10 12 7.96484375 10.375 C5.14022469 8.39832821 2.376108 8.32462577 -1 8 C-0.67 5.36 -0.34 2.72 0 0 Z " fill="#8A0000" transform="translate(115,46)"/>
<path d="M0 0 C0.495 1.98 0.495 1.98 1 4 C-0.07314453 4.41378906 -0.07314453 4.41378906 -1.16796875 4.8359375 C-14.72954118 10.41021141 -23.93250143 18.47111806 -30 32 C-31.96856718 38.43257817 -32.38948009 44.87471592 -32.625 51.5625 C-32.66367187 52.47580078 -32.70234375 53.38910156 -32.7421875 54.33007812 C-32.83530252 56.55319924 -32.92112166 58.77633613 -33 61 C-31.02 61 -29.04 61 -27 61 C-27 61.33 -27 61.66 -27 62 C-31.455 62.495 -31.455 62.495 -36 63 C-39.53616738 55.66104945 -39.18980011 44.78101968 -36.74609375 37.01171875 C-36.49988281 36.34785156 -36.25367188 35.68398437 -36 35 C-35.68160156 34.07832031 -35.36320312 33.15664062 -35.03515625 32.20703125 C-29.97824642 18.77301826 -20.16788769 7.53969186 -7 1.4375 C-4.33666602 0.33593723 -2.94321119 0 0 0 Z " fill="#890000" transform="translate(84,49)"/>
<path d="M0 0 C1.32 0.99 2.64 1.98 4 3 C2.3790787 4.17232685 0.75313167 5.3377077 -0.875 6.5 C-1.77992188 7.1496875 -2.68484375 7.799375 -3.6171875 8.46875 C-6 10 -6 10 -8 10 C-8 10.66 -8 11.32 -8 12 C-19.54171113 18.41206174 -32.93846584 20.03309548 -45.84765625 17.13671875 C-49.67393083 15.97146348 -53.41757768 14.79121116 -57 13 C-57 12.34 -57 11.68 -57 11 C-58.6396875 10.62875 -58.6396875 10.62875 -60.3125 10.25 C-64.18702567 8.93660147 -64.92711662 8.3166134 -67 5 C-67.99 4.34 -68.98 3.68 -70 3 C-68.68 2.34 -67.36 1.68 -66 1 C-65.0925 1.804375 -64.185 2.60875 -63.25 3.4375 C-60.89690092 5.41142671 -59.13061954 6.63877467 -56 7 C-56 7.66 -56 8.32 -56 9 C-49.14725579 11.58710343 -42.63190123 12.30114001 -35.375 12.3125 C-34.19490356 12.32023438 -34.19490356 12.32023438 -32.9909668 12.328125 C-20.16423924 12.17840186 -9.88556662 8.08084465 0 0 Z " fill="#8A0000" transform="translate(133,136)"/>
<path d="M0 0 C4 1 4 1 4 1 Z " fill="#000000" transform="translate(121,199)"/>
<path d="M0 0 C4 1 4 1 4 1 Z " fill="#000000" transform="translate(75,199)"/>
<path d="M0 0 C1 4 1 4 1 4 Z " fill="#000000" transform="translate(0,121)"/>
<path d="M0 0 C1 4 1 4 1 4 Z " fill="#000000" transform="translate(0,75)"/>
<path d="M0 0 C3 1 3 1 3 1 Z " fill="#000000" transform="translate(129,197)"/>
<path d="" fill="#000000" transform="translate(0,0)"/>
<path d="" fill="#000000" transform="translate(0,0)"/>
<path d="" fill="#000000" transform="translate(0,0)"/>
<path d="" fill="#000000" transform="translate(0,0)"/>
<path d="" fill="#000000" transform="translate(0,0)"/>
<path d="" fill="#000000" transform="translate(0,0)"/>
<path d="" fill="#000000" transform="translate(0,0)"/>
<path d="M0 0 C3 1 3 1 3 1 Z " fill="#000000" transform="translate(68,2)"/>
<path d="M0 0 C3 1 3 1 3 1 Z " fill="#000000" transform="translate(122,0)"/>
<path d="M0 0 C3 1 3 1 3 1 Z " fill="#000000" transform="translate(75,0)"/>
<path d="M0 0 C2 1 2 1 2 1 Z " fill="#000000" transform="translate(125,198)"/>
<path d="M0 0 C2 1 2 1 2 1 Z " fill="#000000" transform="translate(73,198)"/>
<path d="M0 0 C2 1 2 1 2 1 Z " fill="#000000" transform="translate(69,197)"/>
<path d="M0 0 C2 1 2 1 2 1 Z " fill="#000000" transform="translate(132,196)"/>
<path d="M0 0 C2 1 2 1 2 1 Z " fill="#000000" transform="translate(135,195)"/>
<path d="M0 0 C2 1 2 1 2 1 Z " fill="#000000" transform="translate(63,195)"/>
<path d="M0 0 C2 1 2 1 2 1 Z " fill="#000000" transform="translate(137,194)"/>
<path d="M0 0 C2 1 2 1 2 1 Z " fill="#000000" transform="translate(61,194)"/>
<path d="M0 0 C2 1 2 1 2 1 Z " fill="#000000" transform="translate(140,193)"/>
<path d="M0 0 C2 1 2 1 2 1 Z " fill="#000000" transform="translate(151,187)"/>
<path d="" fill="#000000" transform="translate(0,0)"/>
<path d="" fill="#000000" transform="translate(0,0)"/>
<path d="" fill="#000000" transform="translate(0,0)"/>
<path d="" fill="#000000" transform="translate(0,0)"/>
<path d="" fill="#000000" transform="translate(0,0)"/>
<path d="" fill="#000000" transform="translate(0,0)"/>
<path d="" fill="#000000" transform="translate(0,0)"/>
<path d="" fill="#000000" transform="translate(0,0)"/>
<path d="" fill="#000000" transform="translate(0,0)"/>
<path d="" fill="#000000" transform="translate(0,0)"/>
<path d="" fill="#000000" transform="translate(0,0)"/>
<path d="" fill="#000000" transform="translate(0,0)"/>
<path d="" fill="#000000" transform="translate(0,0)"/>
<path d="" fill="#000000" transform="translate(0,0)"/>
<path d="" fill="#000000" transform="translate(0,0)"/>
<path d="" fill="#000000" transform="translate(0,0)"/>
<path d="" fill="#000000" transform="translate(0,0)"/>
<path d="" fill="#000000" transform="translate(0,0)"/>
<path d="" fill="#000000" transform="translate(0,0)"/>
<path d="" fill="#000000" transform="translate(0,0)"/>
<path d="" fill="#000000" transform="translate(0,0)"/>
<path d="" fill="#000000" transform="translate(0,0)"/>
<path d="" fill="#000000" transform="translate(0,0)"/>
<path d="" fill="#000000" transform="translate(0,0)"/>
<path d="" fill="#000000" transform="translate(0,0)"/>
<path d="" fill="#000000" transform="translate(0,0)"/>
<path d="" fill="#000000" transform="translate(0,0)"/>
<path d="" fill="#000000" transform="translate(0,0)"/>
<path d="" fill="#000000" transform="translate(0,0)"/>
<path d="" fill="#000000" transform="translate(0,0)"/>
<path d="" fill="#000000" transform="translate(0,0)"/>
<path d="" fill="#000000" transform="translate(0,0)"/>
<path d="" fill="#000000" transform="translate(0,0)"/>
<path d="" fill="#000000" transform="translate(0,0)"/>
<path d="" fill="#000000" transform="translate(0,0)"/>
<path d="" fill="#000000" transform="translate(0,0)"/>
<path d="" fill="#000000" transform="translate(0,0)"/>
<path d="M0 0 C2 1 2 1 2 1 Z " fill="#000000" transform="translate(160,18)"/>
<path d="M0 0 C2 1 2 1 2 1 Z " fill="#000000" transform="translate(47,12)"/>
<path d="M0 0 C2 1 2 1 2 1 Z " fill="#000000" transform="translate(146,9)"/>
<path d="M0 0 C2 1 2 1 2 1 Z " fill="#000000" transform="translate(144,8)"/>
<path d="M0 0 C2 1 2 1 2 1 Z " fill="#000000" transform="translate(142,7)"/>
<path d="M0 0 C2 1 2 1 2 1 Z " fill="#000000" transform="translate(56,7)"/>
<path d="M0 0 C2 1 2 1 2 1 Z " fill="#000000" transform="translate(140,6)"/>
<path d="M0 0 C2 1 2 1 2 1 Z " fill="#000000" transform="translate(58,6)"/>
<path d="M0 0 C2 1 2 1 2 1 Z " fill="#000000" transform="translate(135,4)"/>
<path d="M0 0 C2 1 2 1 2 1 Z " fill="#000000" transform="translate(63,4)"/>
<path d="M0 0 C2 1 2 1 2 1 Z " fill="#000000" transform="translate(132,3)"/>
<path d="M0 0 C2 1 2 1 2 1 Z " fill="#000000" transform="translate(66,3)"/>
<path d="M0 0 C2 1 2 1 2 1 Z " fill="#000000" transform="translate(130,2)"/>
<path d="" fill="#000000" transform="translate(0,0)"/>
<path d="" fill="#000000" transform="translate(0,0)"/>
<path d="" fill="#000000" transform="translate(0,0)"/>
<path d="" fill="#000000" transform="translate(0,0)"/>
<path d="" fill="#000000" transform="translate(0,0)"/>
<path d="" fill="#000000" transform="translate(0,0)"/>
<path d="" fill="#000000" transform="translate(0,0)"/>
<path d="" fill="#000000" transform="translate(0,0)"/>
<path d="" fill="#000000" transform="translate(0,0)"/>
<path d="" fill="#000000" transform="translate(0,0)"/>
<path d="" fill="#000000" transform="translate(0,0)"/>
<path d="" fill="#000000" transform="translate(0,0)"/>
<path d="" fill="#000000" transform="translate(0,0)"/>
<path d="" fill="#000000" transform="translate(0,0)"/>
<path d="" fill="#000000" transform="translate(0,0)"/>
<path d="" fill="#000000" transform="translate(0,0)"/>
<path d="" fill="#000000" transform="translate(0,0)"/>
<path d="" fill="#000000" transform="translate(0,0)"/>
<path d="" fill="#000000" transform="translate(0,0)"/>
<path d="" fill="#000000" transform="translate(0,0)"/>
<path d="" fill="#000000" transform="translate(0,0)"/>
<path d="" fill="#000000" transform="translate(0,0)"/>
<path d="" fill="#000000" transform="translate(0,0)"/>
<path d="" fill="#000000" transform="translate(0,0)"/>
<path d="" fill="#000000" transform="translate(0,0)"/>
<path d="" fill="#000000" transform="translate(0,0)"/>
<path d="" fill="#000000" transform="translate(0,0)"/>
<path d="" fill="#000000" transform="translate(0,0)"/>
<path d="" fill="#000000" transform="translate(0,0)"/>
<path d="" fill="#000000" transform="translate(0,0)"/>
<path d="" fill="#000000" transform="translate(0,0)"/>
<path d="" fill="#000000" transform="translate(0,0)"/>
<path d="" fill="#000000" transform="translate(0,0)"/>
<path d="" fill="#000000" transform="translate(0,0)"/>
<path d="" fill="#000000" transform="translate(0,0)"/>
<path d="" fill="#000000" transform="translate(0,0)"/>
<path d="" fill="#000000" transform="translate(0,0)"/>
<path d="" fill="#000000" transform="translate(0,0)"/>
<path d="" fill="#000000" transform="translate(0,0)"/>
<path d="" fill="#000000" transform="translate(0,0)"/>
<path d="" fill="#000000" transform="translate(0,0)"/>
<path d="" fill="#000000" transform="translate(0,0)"/>
<path d="" fill="#000000" transform="translate(0,0)"/>
<path d="" fill="#000000" transform="translate(0,0)"/>
<path d="" fill="#000000" transform="translate(0,0)"/>
<path d="" fill="#000000" transform="translate(0,0)"/>
<path d="" fill="#000000" transform="translate(0,0)"/>
<path d="" fill="#000000" transform="translate(0,0)"/>
<path d="" fill="#000000" transform="translate(0,0)"/>
<path d="" fill="#000000" transform="translate(0,0)"/>
<path d="" fill="#000000" transform="translate(0,0)"/>
<path d="" fill="#000000" transform="translate(0,0)"/>
<path d="" fill="#000000" transform="translate(0,0)"/>
<path d="" fill="#000000" transform="translate(0,0)"/>
<path d="" fill="#000000" transform="translate(0,0)"/>
<path d="" fill="#000000" transform="translate(0,0)"/>
<path d="" fill="#000000" transform="translate(0,0)"/>
<path d="" fill="#000000" transform="translate(0,0)"/>
<path d="" fill="#000000" transform="translate(0,0)"/>
<path d="" fill="#000000" transform="translate(0,0)"/>
<path d="" fill="#000000" transform="translate(0,0)"/>
<path d="" fill="#000000" transform="translate(0,0)"/>
<path d="" fill="#000000" transform="translate(0,0)"/>
<path d="" fill="#000000" transform="translate(0,0)"/>
<path d="" fill="#000000" transform="translate(0,0)"/>
<path d="" fill="#000000" transform="translate(0,0)"/>
<path d="" fill="#000000" transform="translate(0,0)"/>
<path d="" fill="#000000" transform="translate(0,0)"/>
<path d="" fill="#000000" transform="translate(0,0)"/>
<path d="" fill="#000000" transform="translate(0,0)"/>
<path d="" fill="#000000" transform="translate(0,0)"/>
<path d="" fill="#000000" transform="translate(0,0)"/>
<path d="" fill="#000000" transform="translate(0,0)"/>
<path d="" fill="#000000" transform="translate(0,0)"/>
<path d="" fill="#000000" transform="translate(0,0)"/>
<path d="" fill="#000000" transform="translate(0,0)"/>
<path d="" fill="#000000" transform="translate(0,0)"/>
<path d="" fill="#000000" transform="translate(0,0)"/>
<path d="" fill="#000000" transform="translate(0,0)"/>
<path d="" fill="#000000" transform="translate(0,0)"/>
<path d="" fill="#000000" transform="translate(0,0)"/>
<path d="" fill="#000000" transform="translate(0,0)"/>
<path d="" fill="#000000" transform="translate(0,0)"/>
<path d="" fill="#000000" transform="translate(0,0)"/>
<path d="" fill="#000000" transform="translate(0,0)"/>
<path d="" fill="#000000" transform="translate(0,0)"/>
<path d="" fill="#000000" transform="translate(0,0)"/>
<path d="" fill="#000000" transform="translate(0,0)"/>
<path d="" fill="#000000" transform="translate(0,0)"/>
<path d="" fill="#000000" transform="translate(0,0)"/>
<path d="" fill="#000000" transform="translate(0,0)"/>
<path d="" fill="#000000" transform="translate(0,0)"/>
<path d="" fill="#000000" transform="translate(0,0)"/>
<path d="" fill="#000000" transform="translate(0,0)"/>
<path d="" fill="#000000" transform="translate(0,0)"/>
<path d="" fill="#000000" transform="translate(0,0)"/>
<path d="" fill="#000000" transform="translate(0,0)"/>
<path d="" fill="#000000" transform="translate(0,0)"/>
<path d="" fill="#000000" transform="translate(0,0)"/>
<path d="" fill="#000000" transform="translate(0,0)"/>
<path d="" fill="#000000" transform="translate(0,0)"/>
<path d="" fill="#000000" transform="translate(0,0)"/>
<path d="" fill="#000000" transform="translate(0,0)"/>
</svg>
